# xmcd
#
# Track frame offsets: 
#        150
#        12872
#        26331
#        38303
#        53658
#        89136
#        104248
#        120169
#        136588
#        149824
#        159179
#        175188
#        201065
#        213381
#        228780
#        247012
#        262424
#        274509
#
# Disc length: 3710 seconds
#
# Revision: 3
# Processed by: cddbd v1.5.2PL0 Copyright (c) Steve Scherf et al.
# Submitted via: ExactAudioCopy v0.99pb4
#
DISCID=f40e7c12
DTITLE=Blues Brothers - The Blues Brothers Complete [CD 2)
DYEAR=1998
DGENRE=Bluesrock
TTITLE0=Shake A Tail Feather
TTITLE1=The Old Landmark
TTITLE2=Theme From Rawhide
TTITLE3=Minnie The Moocher
TTITLE4=Sweet Home Chicago
TTITLE5=Jailhouse Rock
TTITLE6=Who's Making Love
TTITLE7=Do You Love Me
TTITLE8=Guilty
TTITLE9=Perry Mason Theme
TTITLE10=Riot In Cell Block Number Nine
TTITLE11=Green Onions
TTITLE12=I Ain't Got You
TTITLE13=From The Bottom
TTITLE14=Going Back To Miami
TTITLE15=Expressway To Your Heart
TTITLE16=Excusez Moi Mon Cherie
TTITLE17=Closing: I Can't Turn You Loose
EXTD=
EXTT0=
EXTT1=
EXTT2=
EXTT3=
EXTT4=
EXTT5=
EXTT6=
EXTT7=
EXTT8=
EXTT9=
EXTT10=
EXTT11=
EXTT12=
EXTT13=
EXTT14=
EXTT15=
EXTT16=
EXTT17=
PLAYORDER=
